<svg xmlns="http://www.w3.org/2000/svg" xmlns:xlink="http://www.w3.org/1999/xlink" width="370" height="309.54" viewBox="0 0 370 309.54">
  <defs>
    <linearGradient id="linear-gradient" x1="1.129" y1="0.227" x2="-0.107" y2="0.763" gradientUnits="objectBoundingBox">
      <stop offset="0" stop-color="#386aeb"/>
      <stop offset="0.237" stop-color="#3a6deb"/>
      <stop offset="0.467" stop-color="#4079eb"/>
      <stop offset="0.695" stop-color="#4b8deb"/>
      <stop offset="0.92" stop-color="#5ba8ec"/>
      <stop offset="1" stop-color="#62b4ed"/>
    </linearGradient>
    <linearGradient id="linear-gradient-2" x1="0.149" y1="0.777" x2="0.944" y2="0.149" xlink:href="#linear-gradient"/>
    <linearGradient id="linear-gradient-3" x1="0.124" y1="0.032" x2="0.917" y2="1.075" gradientUnits="objectBoundingBox">
      <stop offset="0" stop-color="#c1c1c9"/>
      <stop offset="1" stop-color="#fff"/>
    </linearGradient>
  </defs>
  <g id="contact_us_iamge" data-name="contact us iamge" transform="translate(-132.065 -161.454)">
    <path id="Path_5625" data-name="Path 5625" d="M433.288,395.986l-1.059-.706,2.119-3.177,1.059.707Zm4.239-6.353-1.059-.707,2.119-3.176,1.059.706Zm4.239-6.353-1.059-.706,2.12-3.177,1.059.706Zm4.239-6.353-1.059-.707,2.119-3.177,1.059.707Zm4.239-6.353-1.059-.706,2.12-3.177,1.059.706Zm4.24-6.353-1.059-.706,2.119-3.177,1.059.706Zm4.24-6.353-1.06-.707,2.12-3.176,1.059.706Zm4.239-6.353-1.059-.706,2.12-3.177,1.059.707Zm4.239-6.353-1.059-.707,2.119-3.177,1.059.707Z" transform="translate(-109.113 -69.904)" fill="#c1c1c9"/>
    <rect id="Rectangle_535" data-name="Rectangle 535" width="64.01" height="1.273" transform="translate(207.858 249.864) rotate(-12.638)" fill="#c1c1c9"/>
    <path id="Path_5626" data-name="Path 5626" d="M431.408,260.317l-.279-1.242,3.725-.838.28,1.242Zm7.452-1.675-.279-1.242,3.725-.838.28,1.242Zm7.452-1.675-.279-1.242,3.725-.837.28,1.242Zm7.452-1.675-.279-1.242,3.725-.838.28,1.242Zm7.452-1.675-.279-1.242,3.726-.837.279,1.242Zm7.452-1.674-.279-1.242,3.726-.837.279,1.242Zm7.452-1.675-.279-1.242,3.725-.838.28,1.242Z" transform="translate(-108.713 -36.066)" fill="#c1c1c9"/>
    <path id="Path_5627" data-name="Path 5627" d="M349.583,366.193,286.893,330l-58.262-33.637L426.35,249.483Z" transform="translate(-35.103 -36.536)" fill="url(#linear-gradient)"/>
    <path id="Path_5628" data-name="Path 5628" d="M451.894,249.483,298.9,322.184l18.353,46.838,1.423-35.569Z" transform="translate(-60.647 -36.536)" fill="url(#linear-gradient-2)"/>
    <path id="Path_5629" data-name="Path 5629" d="M352.48,395.024l-23.322-13.613-1.423,35.569Z" transform="translate(-71.129 -84.494)" fill="#5166e0"/>
    <path id="Path_5630" data-name="Path 5630" d="M195.9,556.134h-.733l.006-1.273h.725q1.54,0,3.077-.032L199,556.1Q197.451,556.134,195.9,556.134Zm-4.569-.069c-1.293-.041-2.582-.1-3.832-.171l.073-1.27c1.239.071,2.517.128,3.8.168Zm11.5-.086-.056-1.272c1.257-.056,2.535-.127,3.8-.213l.086,1.27C205.389,555.851,204.1,555.923,202.834,555.98Zm-19.163-.363c-1.286-.111-2.571-.244-3.82-.392l.15-1.264c1.235.146,2.506.277,3.779.388Zm26.814-.159-.117-1.268c1.258-.115,2.531-.247,3.783-.393l.147,1.264C213.036,555.209,211.753,555.343,210.485,555.458Zm-34.439-.751c-1.281-.2-2.555-.416-3.788-.652l.24-1.251c1.217.234,2.476.45,3.741.644Zm42.053-.129-.172-1.262q1.9-.26,3.767-.545l.192,1.258Q220.012,554.316,218.1,554.579Zm282.184-4.748,1.268.106C501.446,551.2,500.18,551.063,500.283,549.831Zm-274.617,3.586-.214-1.255q1.891-.322,3.747-.67l.235,1.251Q227.567,553.1,225.666,553.417Zm-57.169-.162c-1.272-.3-2.526-.624-3.725-.965l.348-1.225c1.18.335,2.415.656,3.669.95Zm64.693-1.248-.255-1.247q1.877-.385,3.723-.794l.276,1.243Q235.077,551.621,233.189,552.008Zm-72.095-.867c-1.239-.425-2.454-.882-3.61-1.358l.485-1.177c1.132.466,2.323.915,3.537,1.331Zm79.569-.79-.3-1.238q1.862-.445,3.695-.914l.316,1.233Q242.534,549.9,240.663,550.351Zm7.416-1.9-.335-1.228q1.844-.5,3.666-1.029l.353,1.223Q249.93,547.947,248.078,548.454Zm-94.114-.267c-1.18-.588-2.321-1.215-3.391-1.865l.66-1.088c1.039.631,2.15,1.24,3.3,1.814Zm101.466-1.854-.37-1.218q1.83-.555,3.643-1.135l.387,1.214Q257.269,545.774,255.431,546.332Zm246.288-.263h-1.273v-.158c0-1.213-.048-2.425-.145-3.6l1.27-.1c.1,1.213.148,2.461.148,3.708Zm-354.362-1.917a33.78,33.78,0,0,1-2.973-2.506l.876-.924a32.474,32.474,0,0,0,2.861,2.411Zm115.372-.147-.4-1.208q1.809-.6,3.61-1.224l.415,1.2Q264.546,543.4,262.73,544.006Zm7.232-2.5-.428-1.2q1.793-.639,3.581-1.3l.439,1.2Q271.759,540.867,269.961,541.509Zm7.17-2.632-.448-1.191q1.778-.67,3.558-1.353l.456,1.188Q278.913,538.207,277.131,538.877Zm-135.393-.093a38.424,38.424,0,0,1-2.282-3.138l1.065-.7a37.4,37.4,0,0,0,2.207,3.035Zm358.093-.209c-.213-1.237-.486-2.472-.811-3.668l1.228-.334c.336,1.235.617,2.509.838,3.786Zm-215.571-2.432-.463-1.186q1.771-.69,3.552-1.393l.468,1.185Q286.032,535.451,284.261,536.143Zm7.107-2.8-.472-1.182,3.545-1.415.472,1.183ZM137.5,532.3c-.589-1.13-1.139-2.311-1.634-3.513l1.177-.485c.48,1.167,1.013,2.313,1.585,3.408Zm360.36-.962q-.2-.519-.411-1.034c-.336-.809-.705-1.617-1.1-2.4l1.139-.568c.4.812.787,1.647,1.134,2.482q.222.534.426,1.072Zm-199.4-.831-.474-1.182,3.545-1.419.472,1.183Zm7.089-2.835-.471-1.182q1.762-.7,3.55-1.409l.467,1.183Q307.307,526.969,305.547,527.67Zm-171-2.523c-.381-1.2-.724-2.459-1.019-3.731l1.241-.287c.287,1.24.621,2.463.991,3.634Zm178.1-.283-.465-1.185q1.766-.693,3.56-1.388l.46,1.187Q314.406,524.173,312.644,524.864Zm181.868-.237c-.658-1.05-1.379-2.088-2.142-3.084l1.011-.775c.788,1.029,1.531,2.1,2.211,3.182Zm-174.753-2.517-.454-1.19q1.772-.676,3.574-1.354l.448,1.191Q321.528,521.435,319.758,522.111Zm7.142-2.685-.442-1.193q1.79-.662,3.587-1.315l.435,1.2Q328.687,518.765,326.9,519.426Zm163.052-.761c-.837-.911-1.733-1.806-2.662-2.662l.862-.936c.955.878,1.876,1.8,2.736,2.736Zm-357.159-1.041c-.2-1.249-.356-2.538-.474-3.832l1.268-.114c.115,1.265.27,2.526.463,3.748Zm201.275-.8-.427-1.2q1.8-.642,3.6-1.273l.419,1.2Q335.863,516.179,334.067,516.82Zm7.2-2.515-.412-1.2q1.809-.619,3.624-1.222l.4,1.208Q343.072,513.688,341.268,514.3Zm143.152-.742c-.966-.761-1.992-1.51-3.048-2.226l.715-1.053c1.08.733,2.13,1.5,3.12,2.279ZM348.506,511.9l-.393-1.211q1.82-.59,3.645-1.163l.38,1.215Q350.319,511.308,348.506,511.9ZM132.091,509.94q-.026-.933-.026-1.848,0-1.015.03-2.007l1.273.039q-.03.972-.03,1.968,0,.9.026,1.813Zm223.691-.328-.369-1.218q1.83-.556,3.666-1.094l.357,1.222Q357.607,509.058,355.782,509.612Zm122.4-.291c-1.064-.624-2.18-1.235-3.317-1.816l.578-1.134c1.16.592,2.3,1.215,3.384,1.852ZM363.1,507.47l-.344-1.226q1.843-.518,3.689-1.016l.332,1.23Q364.937,506.954,363.1,507.47Zm108.342-1.593c-1.139-.5-2.317-.992-3.5-1.447l.457-1.189c1.2.465,2.4.96,3.56,1.473Zm-100.979-.391-.317-1.233q1.855-.476,3.715-.929l.3,1.237Q372.311,505.011,370.465,505.486Zm7.409-1.8-.285-1.241q1.866-.429,3.737-.831l.267,1.244Q379.732,503.256,377.873,503.683Zm86.5-.533c-1.189-.4-2.409-.772-3.624-1.12l.351-1.224c1.232.353,2.468.734,3.674,1.135Zm-330.783-.8-1.268-.112c.113-1.284.264-2.573.449-3.829l1.259.185C133.85,499.823,133.7,501.087,133.591,502.347Zm251.734-.267-.25-1.248q1.879-.376,3.762-.724l.231,1.251Q387.195,501.7,385.325,502.079Zm71.756-1.018c-1.215-.294-2.462-.572-3.7-.823l.252-1.248c1.259.255,2.521.536,3.752.834ZM392.82,500.7l-.211-1.255q1.891-.318,3.783-.605l.191,1.258Q394.7,500.381,392.82,500.7Zm7.533-1.141-.169-1.262q1.9-.255,3.8-.475l.147,1.264Q402.242,499.3,400.354,499.555Zm49.291,0c-1.24-.2-2.5-.389-3.758-.549l.162-1.263c1.269.163,2.548.35,3.8.556Zm-41.725-.875-.123-1.267q1.907-.185,3.816-.334l.1,1.269Q409.815,498.494,407.919,498.679Zm34.19-.1c-1.257-.125-2.532-.237-3.788-.332l.1-1.269c1.267.1,2.552.208,3.82.335Zm-26.6-.49-.074-1.27q1.913-.112,3.827-.183l.047,1.272Q417.41,497.978,415.51,498.088ZM434.525,498c-1.262-.066-2.541-.117-3.8-.152l.036-1.273c1.27.036,2.559.087,3.83.153Zm-11.41-.2-.02-1.273q1.4-.022,2.8-.022l1.031,0-.008,1.273-1.023,0Q424.5,497.784,423.114,497.806Zm-288.423-2.942-1.248-.251c.252-1.252.531-2.513.828-3.746l1.237.3C135.216,492.384,134.94,493.628,134.692,494.864Zm1.776-7.367-1.224-.346c.344-1.22.719-2.456,1.113-3.675l1.211.391C137.179,485.072,136.809,486.293,136.468,487.5Zm2.331-7.206-1.2-.437c.431-1.182.895-2.386,1.379-3.577l1.179.48C139.683,477.934,139.225,479.123,138.8,480.291Zm2.853-7.021-1.161-.521c.517-1.154,1.065-2.323,1.63-3.475l1.143.561C142.706,470.973,142.164,472.129,141.652,473.271Zm3.341-6.817-1.124-.6c.594-1.117,1.22-2.247,1.859-3.362l1.1.634C146.2,464.229,145.581,465.349,144.993,466.453Zm3.783-6.593-1.083-.669c.672-1.088,1.367-2.179,2.065-3.241l1.063.7C150.13,457.7,149.442,458.781,148.776,459.86Zm4.186-6.362-1.043-.729c.724-1.034,1.48-2.084,2.249-3.119l1.022.759C154.427,451.435,153.678,452.474,152.962,453.5Zm4.538-6.122-1-.785c.778-.994,1.589-2,2.409-3l.982.811C159.076,445.392,158.272,446.391,157.5,447.376Zm4.853-5.884-.962-.834c.837-.966,1.695-1.933,2.55-2.875l.943.855C164.035,439.574,163.183,440.533,162.352,441.493Zm5.126-5.651-.924-.876q1.32-1.391,2.674-2.759l.905.895Q168.79,434.459,167.479,435.841Zm5.366-5.426-.887-.913q1.378-1.337,2.781-2.648l.869.93Q174.214,429.088,172.845,430.415Zm5.576-5.211-.851-.946q1.423-1.282,2.875-2.543l.834.961Q179.838,423.929,178.421,425.2Zm5.76-5-.819-.975q1.467-1.234,2.956-2.442l.8.987Q185.64,418.974,184.181,420.2Zm5.918-4.814-.788-1q1.5-1.185,3.027-2.349l.773,1.012Q191.6,414.206,190.1,415.386Zm6.056-4.629-.759-1.022q1.539-1.141,3.09-2.26l.745,1.032Q197.687,409.621,196.155,410.757Zm6.178-4.46-.731-1.042q1.566-1.1,3.143-2.177l.719,1.051Q203.892,405.2,202.333,406.3Zm6.286-4.3-.706-1.059q1.592-1.061,3.19-2.1l.694,1.067Q210.205,400.941,208.619,402ZM215,397.849l-.682-1.075q1.614-1.023,3.231-2.029l.671,1.082Q216.6,396.827,215,397.849Zm6.469-4.018-.66-1.088q1.639-1,3.28-1.97l.65,1.094Q223.1,392.839,221.465,393.831Zm6.56-3.9-.64-1.1q1.658-.965,3.315-1.91l.63,1.107Q229.681,388.973,228.025,389.936Zm6.627-3.78-.621-1.111q1.677-.937,3.346-1.853l.613,1.116Q236.325,385.22,234.652,386.156Z" transform="translate(0 -85.141)" fill="url(#linear-gradient-3)"/>
    <path id="Path_5631" data-name="Path 5631" d="M609.758,226.366l11.005,6.354-62.99,33.463,17.482,10.093,62.99-33.463,11.005,6.354L656.815,222Z" transform="translate(-154.75 -26.545)" fill="#0f1f3f"/>
    <path id="Path_6751" data-name="Path 6751" d="M609.758,226.366l11.005,6.354-62.99,33.463,17.482,10.093,62.99-33.463,11.005,6.354L656.815,222Z" transform="translate(-420.75 -60.545)" fill="#78909c"/>
    <path id="Path_5632" data-name="Path 5632" d="M631.255,384.809l-1.242-.282.8-3.529-3.529-.8.282-1.242,4.77,1.084Z" transform="translate(-180.019 -83.601)" fill="#c1c1c9"/>
    <rect id="Rectangle_536" data-name="Rectangle 536" width="83.484" height="1.272" transform="translate(377.469 335.452) rotate(-27.967)" fill="#c1c1c9"/>
    <path id="Path_5633" data-name="Path 5633" d="M511.613,457.715l-.588-1.129,3.388-1.763.588,1.128Zm6.775-3.527-.588-1.129,3.387-1.763.588,1.128Zm6.774-3.527-.588-1.129,3.387-1.763.588,1.129Zm6.775-3.527L531.349,446l3.387-1.763.588,1.129Zm6.774-3.527-.588-1.129,3.387-1.763.588,1.129Zm6.775-3.527-.588-1.129,3.387-1.763.588,1.128Zm6.774-3.527-.587-1.129,3.387-1.763.588,1.129Z" transform="translate(-137.757 -103.486)" fill="#c1c1c9"/>
    <path id="Path_5634" data-name="Path 5634" d="M324.4,497.019l14.693,8.483L260.757,546.57l23.34,13.475,78.334-41.068,14.693,8.483,10.1-36.272Z" transform="translate(-46.781 -124.399)" fill="#ff9800"/>
    <path id="Path_5636" data-name="Path 5636" d="M396.521,274.45l-1.615,7.141-2.413-2.642,1.661-3.462Z" transform="translate(-94.668 -45.612)" fill="#f2a983"/>
    <path id="Path_5637" data-name="Path 5637" d="M396.343,275.825l.7-1.526a8.429,8.429,0,0,0,0-1.3c-.025-.082-.26-.151-.493-.474a.482.482,0,0,0-.461-.16,4,4,0,0,1-.531-.1,1.82,1.82,0,0,0-.5.328c-.036.049-.437.244-.451.407-.017.2.2.444.307.611.088.132.162.132.232.094.09-.048.1-.2,0-.479a.735.735,0,0,1,0,.479c-.123.344-.813.492-.995.776a1.3,1.3,0,0,0-.052,1.06Z" transform="translate(-95.216 -44.818)" fill="#f2a983"/>
    <path id="Path_5638" data-name="Path 5638" d="M390.323,283.508a1.341,1.341,0,0,1-.542.887c-9.187,5.634-9.966,4.679-11.195,2.577-.726-1.241-.243-2.552,2.138-3.716,3.075-1.5,4.6-1.722,5.854-2.412.4-.219,1.016-.442,2.282.474A3.624,3.624,0,0,1,390.323,283.508Z" transform="translate(-89.501 -47.866)" fill="#1e3d84"/>
    <path id="Path_5639" data-name="Path 5639" d="M383.276,298.665c-.277-.082-.552-.207-.628-.5-.579-2.246-2.317-7.06-2.626-8.605-.316-1.578-.146-5.1,1.429-5.12,2-.03,2.126,2.732,2.689,4.13.88,2.185,2.419,6.726,2.51,8.728.02.454-.026.8-1.469,1.4A2.793,2.793,0,0,1,383.276,298.665Z" transform="translate(-90.088 -49.244)" fill="#f44785"/>
    <path id="Path_5640" data-name="Path 5640" d="M377.028,319.688l1.7,10.066a.456.456,0,0,1,0,.125l-.228,2.163a.507.507,0,0,0,0,.069c.013.254.213,4.01.213,4.01l10.872-6.818v-8.265a.442.442,0,0,0-.006-.071l-.99-6.672a.461.461,0,0,0-.344-.376l-9.627-2.083a.461.461,0,0,0-.563.359l-1.1,5.624a.464.464,0,0,0-.008.107l.07,1.7C377.023,319.65,377.025,319.669,377.028,319.688Z" transform="translate(-89.019 -59.198)" fill="#0f1f3f"/>
    <path id="Path_5641" data-name="Path 5641" d="M387.59,287.684l-3.207-.069-1.916-1.25,1.153,6.821Z" transform="translate(-91.024 -49.943)" fill="#f44785"/>
    <path id="Path_5642" data-name="Path 5642" d="M388.542,288.5c-1.116-.77-7.067-4.245-7.067-4.245-.821-.488-2.911.483-3.214.878a6.639,6.639,0,0,0-.915,4.277c.045,2.569.927,4.88.835,8.794-.032,1.375-.486,2.823-.183,3.553a4.127,4.127,0,0,0,1.934,1.7,23.759,23.759,0,0,0,6.01,1.851c.808.047,2.886-.563,2.946-1.37.216-2.964.235-6.928.235-6.928l.42-5.909S389.257,288.988,388.542,288.5Z" transform="translate(-89.16 -49.126)" fill="#1e3d84"/>
    <path id="Path_5643" data-name="Path 5643" d="M385.158,279.014l1.445,2.14,1.369-.092,1.321-.176.081-.377-.147-.223.238-2.192-.377-1.061.133-1.611-3.412.493-.947.369-.338.419Z" transform="translate(-91.772 -45.965)" fill="#f2a983"/>
    <path id="Path_5644" data-name="Path 5644" d="M383.146,286.128c-.648.384-.271,1.235.843,1.9a3.727,3.727,0,0,0,3.189.507c.648-.384.271-1.235-.843-1.9A3.726,3.726,0,0,0,383.146,286.128Z" transform="translate(-91.156 -49.789)" fill="#f2a983"/>
    <path id="Path_5645" data-name="Path 5645" d="M387.206,286.769c-.643.393-2.081.167-3.2-.5a2.361,2.361,0,0,1-1.131-1.191l.863-3.636c.228-.623,3.266-.326,3.216.393a38.623,38.623,0,0,0,.253,4.933Z" transform="translate(-91.172 -48.03)" fill="#f2a983"/>
    <path id="Path_5646" data-name="Path 5646" d="M381.822,274.545c-.537,1.076-.117,4.655,1.15,5.215,1.053.467,2.627.619,2.94.064,1.106-1.961,1.2-4.928.239-5.76C384.257,272.432,382.707,272.775,381.822,274.545Z" transform="translate(-90.707 -45.089)" fill="#af7272"/>
    <path id="Path_5647" data-name="Path 5647" d="M387.624,280.824a23.975,23.975,0,0,1-.9-2.752,2.573,2.573,0,0,1,1.308-2.814c.351-.1.663,1.3.663,1.3l.36,1.14C389,278.167,388.134,280.509,387.624,280.824Z" transform="translate(-92.557 -45.904)" fill="#af7272"/>
    <path id="Path_5648" data-name="Path 5648" d="M389.435,279.2c.935,1.008.724-.216.631-.5s-.274-.584-.475-.412C389.149,278.664,389.284,279.039,389.435,279.2Z" transform="translate(-93.504 -46.987)" fill="#f2a983"/>
    <path id="Path_5649" data-name="Path 5649" d="M389.005,275.371a11.944,11.944,0,0,1-2.568.459,2.083,2.083,0,0,1-1.956-.875c-.336-.486.268-2.559,1.631-2.224a8.556,8.556,0,0,0,2.351.325l.134-.368a6.832,6.832,0,0,1,.767.608A1.448,1.448,0,0,1,389.005,275.371Z" transform="translate(-91.723 -44.971)" fill="#af7272"/>
    <path id="Path_5650" data-name="Path 5650" d="M418.631,261.932c.07.824-.423,1.241-1.1.929a2.7,2.7,0,0,1-1.356-2.055c-.07-.824.423-1.241,1.1-.929A2.7,2.7,0,0,1,418.631,261.932Z" transform="translate(-103.274 -40.277)" fill="#0f1f3f"/>
    <path id="Path_5651" data-name="Path 5651" d="M415.116,264.183l2.195-1.3-1.8-3-2.165,1.273Z" transform="translate(-102.25 -40.315)" fill="#0f1f3f"/>
    <path id="Path_5652" data-name="Path 5652" d="M415.273,263.885c.07.824-.423,1.241-1.1.929a2.7,2.7,0,0,1-1.356-2.055c-.07-.824.423-1.241,1.1-.929A2.7,2.7,0,0,1,415.273,263.885Z" transform="translate(-102.054 -40.987)" fill="#1e3d84"/>
    <path id="Path_5653" data-name="Path 5653" d="M414.941,264.019c.055.653-.335.983-.873.736a2.144,2.144,0,0,1-1.074-1.629c-.055-.653.335-.983.873-.736A2.141,2.141,0,0,1,414.941,264.019Z" transform="translate(-102.119 -41.198)" fill="#0f1f3f"/>
    <path id="Path_5654" data-name="Path 5654" d="M407.894,267.418l4.451-2.647-1.423-2.379-4.428,2.624Z" transform="translate(-99.758 -41.228)" fill="#0f1f3f"/>
    <path id="Path_5655" data-name="Path 5655" d="M408.019,268.1c.055.653-.335.983-.873.736a2.14,2.14,0,0,1-1.074-1.628c-.055-.653.335-.983.873-.736A2.142,2.142,0,0,1,408.019,268.1Z" transform="translate(-99.603 -42.684)" fill="#1e3d84"/>
    <path id="Path_5656" data-name="Path 5656" d="M407.846,268.285c.041.49-.252.738-.656.552a1.606,1.606,0,0,1-.806-1.223c-.042-.49.251-.738.656-.552A1.606,1.606,0,0,1,407.846,268.285Z" transform="translate(-99.717 -42.904)" fill="#0f1f3f"/>
    <path id="Path_5657" data-name="Path 5657" d="M401.022,271.387l4.318-2.539-1.068-1.786-4.3,2.521Z" transform="translate(-97.387 -42.926)" fill="#0f1f3f"/>
    <path id="Path_5658" data-name="Path 5658" d="M401.115,272.218c.042.49-.251.738-.656.552a1.607,1.607,0,0,1-.806-1.223c-.041-.49.252-.738.656-.552A1.606,1.606,0,0,1,401.115,272.218Z" transform="translate(-97.27 -44.334)" fill="#1e3d84"/>
    <path id="Path_5659" data-name="Path 5659" d="M400.884,272.343c.026.311-.16.468-.416.351a1.021,1.021,0,0,1-.512-.776c-.027-.311.16-.468.416-.351A1.02,1.02,0,0,1,400.884,272.343Z" transform="translate(-97.38 -44.55)" fill="#0f1f3f"/>
    <path id="Path_5660" data-name="Path 5660" d="M393.159,275.572l4.9-2.871-.678-1.134-4.889,2.859Z" transform="translate(-94.668 -44.564)" fill="#0f1f3f"/>
    <path id="Path_5661" data-name="Path 5661" d="M393.218,276.818c.027.311-.16.468-.416.351a1.018,1.018,0,0,1-.512-.775c-.027-.311.16-.468.416-.351A1.02,1.02,0,0,1,393.218,276.818Z" transform="translate(-94.594 -46.176)" fill="#1e3d84"/>
    <path id="Path_5662" data-name="Path 5662" d="M393.109,276.891c.012.139-.071.209-.186.157a.456.456,0,0,1-.229-.347c-.012-.139.071-.209.186-.157A.455.455,0,0,1,393.109,276.891Z" transform="translate(-94.741 -46.367)" fill="#0f1f3f"/>
    <path id="Path_5663" data-name="Path 5663" d="M404.841,274.78l.468,8.421-3.162-1.044.529-6.969Z" transform="translate(-98.178 -45.732)" fill="#f2a983"/>
    <path id="Path_5664" data-name="Path 5664" d="M404.293,272.778l-.161-1.721a8.465,8.465,0,0,0-.4-1.239c-.048-.069-.295-.064-.615-.3a5.61,5.61,0,0,0-1.3-.247,3.918,3.918,0,0,0-1.1.577.927.927,0,0,0-.068.287s.068-.126.437-.038a1.531,1.531,0,0,1,.684,1.768c-.175.516.369,1.319.369,1.319Z" transform="translate(-97.63 -43.73)" fill="#f2a983"/>
    <path id="Path_5665" data-name="Path 5665" d="M401.919,286.494a1.435,1.435,0,0,1-.241,1.011c-6.63,8.973-8.467,7.341-9.552,5.759-.523-.761-.477-2.815,1.453-4.585,1.016-.932,3.609-2.661,4.59-3.7.312-.332.638-.328,2.125.153A2.354,2.354,0,0,1,401.919,286.494Z" transform="translate(-94.432 -49.354)" fill="#1e3d84"/>
    <path id="Path_5666" data-name="Path 5666" d="M396.842,271.528a1.077,1.077,0,0,1,.737.511,4.512,4.512,0,0,0-.121.673c0,.241-.2.244-.278.3-.111.076-.344.075-.557.29a2.254,2.254,0,0,1-.684.134.665.665,0,0,1-.358-.223.806.806,0,0,1-.088-.415c-.006-.158.053-.2.132-.213.1-.015.2.1.284.386a.737.737,0,0,0-.284-.386c-.3-.206-.335.318-.649.2C394.47,272.579,396.281,271.527,396.842,271.528Z" transform="translate(-95.539 -44.55)" fill="#f2a983"/>
    <rect id="Rectangle_537" data-name="Rectangle 537" width="1.273" height="4.327" transform="translate(152.351 289.533)" fill="#c1c1c9"/>
    <rect id="Rectangle_538" data-name="Rectangle 538" width="1.273" height="4.328" transform="translate(152.351 299.754)" fill="#c1c1c9"/>
    <rect id="Rectangle_539" data-name="Rectangle 539" width="4.327" height="1.273" transform="translate(145.713 296.17)" fill="#c1c1c9"/>
    <rect id="Rectangle_540" data-name="Rectangle 540" width="4.328" height="1.273" transform="translate(155.934 296.17)" fill="#c1c1c9"/>
    <rect id="Rectangle_541" data-name="Rectangle 541" width="1.273" height="4.327" transform="translate(394.216 374.185)" fill="#c1c1c9"/>
    <rect id="Rectangle_542" data-name="Rectangle 542" width="1.273" height="4.328" transform="translate(394.216 384.406)" fill="#c1c1c9"/>
    <rect id="Rectangle_543" data-name="Rectangle 543" width="4.327" height="1.273" transform="translate(387.578 380.823)" fill="#c1c1c9"/>
    <rect id="Rectangle_544" data-name="Rectangle 544" width="4.328" height="1.273" transform="translate(397.8 380.823)" fill="#c1c1c9"/>
    <rect id="Rectangle_545" data-name="Rectangle 545" width="1.273" height="3.192" transform="translate(400.581 265.346)" fill="#c1c1c9"/>
    <rect id="Rectangle_546" data-name="Rectangle 546" width="1.273" height="3.192" transform="translate(400.581 272.884)" fill="#c1c1c9"/>
    <rect id="Rectangle_547" data-name="Rectangle 547" width="3.192" height="1.273" transform="translate(395.853 270.074)" fill="#c1c1c9"/>
    <rect id="Rectangle_548" data-name="Rectangle 548" width="3.192" height="1.273" transform="translate(403.391 270.074)" fill="#c1c1c9"/>
    <path id="Path_5667" data-name="Path 5667" d="M619.375,497.594a6.827,6.827,0,1,1,6.827-6.826A6.834,6.834,0,0,1,619.375,497.594Zm0-12.38a5.554,5.554,0,1,0,5.554,5.554A5.56,5.56,0,0,0,619.375,485.214Z" transform="translate(-174.662 -121.764)" fill="#c1c1c9"/>
    <path id="Path_5668" data-name="Path 5668" d="M608.048,639.214a4.774,4.774,0,1,1,4.774-4.774A4.779,4.779,0,0,1,608.048,639.214Zm0-8.274a3.5,3.5,0,1,0,3.5,3.5A3.505,3.505,0,0,0,608.048,630.94Z" transform="translate(-171.29 -174.738)" fill="#c1c1c9"/>
    <path id="Path_5669" data-name="Path 5669" d="M261.774,472.214a4.774,4.774,0,1,1,4.774-4.774A4.779,4.779,0,0,1,261.774,472.214Zm0-8.274a3.5,3.5,0,1,0,3.5,3.5A3.505,3.505,0,0,0,261.774,463.94Z" transform="translate(-45.415 -114.031)" fill="#c1c1c9"/>
  </g>
</svg>
