<svg xmlns="http://www.w3.org/2000/svg" xmlns:xlink="http://www.w3.org/1999/xlink" width="116.184" height="50" viewBox="0 0 116.184 50">
  <defs>
    <linearGradient id="linear-gradient" x1="1.699" y1="1" x2="-0.255" y2="-0.091" gradientUnits="objectBoundingBox">
      <stop offset="0" stop-color="#386aeb"/>
      <stop offset="0.237" stop-color="#3a6deb"/>
      <stop offset="0.467" stop-color="#4079eb"/>
      <stop offset="0.695" stop-color="#4b8deb"/>
      <stop offset="0.92" stop-color="#5ba8ec"/>
      <stop offset="1" stop-color="#62b4ed"/>
    </linearGradient>
    <linearGradient id="linear-gradient-2" x1="1.129" y1="0.227" x2="-0.107" y2="0.763" xlink:href="#linear-gradient"/>
    <linearGradient id="linear-gradient-4" x1="1838.956" y1="0.498" x2="1837.922" y2="0.498" gradientUnits="objectBoundingBox">
      <stop offset="0" stop-color="#4f4f4f"/>
      <stop offset="0.003" stop-color="#4f4f4f"/>
      <stop offset="0.146" stop-color="#484848"/>
      <stop offset="1" stop-color="#212121"/>
    </linearGradient>
    <linearGradient id="linear-gradient-5" x1="1297.219" y1="48.105" x2="1295.936" y2="47.217" gradientUnits="objectBoundingBox">
      <stop offset="0" stop-color="#616161"/>
      <stop offset="0.2" stop-color="#484848"/>
      <stop offset="0.496" stop-color="#292929"/>
      <stop offset="0.747" stop-color="#161616"/>
      <stop offset="0.921" stop-color="#0f0f0f"/>
    </linearGradient>
    <linearGradient id="linear-gradient-6" x1="1.003" y1="0.502" x2="0.011" y2="0.502" gradientUnits="objectBoundingBox">
      <stop offset="0" stop-color="#e967cd"/>
      <stop offset="0.33" stop-color="#ef83ab"/>
      <stop offset="1" stop-color="#fec55e"/>
    </linearGradient>
    <linearGradient id="linear-gradient-7" x1="-2697.74" y1="0.523" x2="-2698.754" y2="0.523" xlink:href="#linear-gradient-6"/>
  </defs>
  <g id="minivan" transform="translate(0 0)">
    <path id="Path_13017" data-name="Path 13017" d="M32.595,34.289h-21.3l-1.232,1.232V32.88s-.7-10.211,5.106-11.444a35.079,35.079,0,0,1,12.148,0S33.651,23.373,32.595,34.289Z" transform="translate(72.653 7.789)" fill="#10132d"/>
    <path id="Path_13018" data-name="Path 13018" d="M74.981,34.365l-21.3-1.232s-.528.88-.7,1.232c-.352.7-.528.528-.528.528V32.78s-.528-10.211,5.106-11.444a35.079,35.079,0,0,1,12.148,0S76.038,23.449,74.981,34.365Z" transform="translate(-44.382 7.713)" fill="#10132d"/>
    <path id="Path_13019" data-name="Path 13019" d="M29.762,31.831a9.331,9.331,0,0,0-18.662,0c0,5.282,4.4,9.155,8.1,9.155h2.113A9.356,9.356,0,0,0,29.762,31.831Z" transform="translate(73.725 9.014)" fill="#1e3d84"/>
    <path id="Path_13020" data-name="Path 13020" d="M25.728,30.514a6.514,6.514,0,0,0-13.028,0,6.391,6.391,0,0,0,6.514,6.514A6.391,6.391,0,0,0,25.728,30.514Z" transform="translate(74.942 10.155)" fill="#10132d"/>
    <path id="Path_13021" data-name="Path 13021" d="M72.262,31.831a9.331,9.331,0,0,0-18.662,0c0,5.282,4.4,9.155,8.1,9.155h2.113A9.356,9.356,0,0,0,72.262,31.831Z" transform="translate(-43.6 9.014)" fill="#1e3d84"/>
    <path id="Path_13022" data-name="Path 13022" d="M68.128,30.514A6.5,6.5,0,0,0,61.614,24,6.615,6.615,0,0,0,55.1,30.514a6.514,6.514,0,0,0,13.028,0Z" transform="translate(-42.107 10.155)" fill="#10132d"/>
    <path id="Path_13023" data-name="Path 13023" d="M5.088,38.227c.88,8.1,4.578,8.627,5.81,8.979.176,0,1.937-14.437,12.676-13.556,12.5.88,9.683,14.613,9.683,14.613H86.78V45.269l.7-3.873s1.585-8.1,10.035-7.923c14.085.176,12.324,13.556,12.324,13.556l3.345-.176h.7c5.106-1.056,4.225-11.092,4.225-11.092l-1.056-2.641s-1.761-2.641-8.8-5.282c-2.289-.88-4.93-1.585-7.394-2.289-4.049-1.056-7.571-1.937-7.571-1.937h-.176a.172.172,0,0,1-.176-.176l-.176-.176A124.286,124.286,0,0,0,75.688,12.17h0c-.528-.176-1.056-.528-1.585-.7-.176-.176-.352-.176-.528-.352A50.246,50.246,0,0,0,60.195,6.537,205.159,205.159,0,0,0,35.546,4.776C26.215,4.6,18.117,4.6,16.532,4.6a10.115,10.115,0,0,0-4.578.88C8.785,7.065,7.2,13.4,6.145,19.389a1.059,1.059,0,0,1-.176.7h0v.352c0,.352-.176.88-.176,1.232a10.039,10.039,0,0,0-.176,2.289h0v.352c0,.88-.176,1.761-.176,2.465h0c0,.88-.176,1.761-.176,2.641v2.993h0S4.736,33.473,5.088,38.227Z" transform="translate(-3.891 -4.6)" fill="#386aeb"/>
    <path id="Path_13024" data-name="Path 13024" d="M81.136,8.05h-.7s-23.944-1.761-40.846-.7c0,0-2.993,5.634,10.388,9.683,0,0,7.042,2.641,31.691,4.93h.7Z" transform="translate(-28.529 -2.768)" fill="url(#linear-gradient)"/>
    <path id="Path_13025" data-name="Path 13025" d="M53.783,27.877A9.461,9.461,0,0,1,62.938,22.6C73.854,22.947,72.8,36.5,72.8,36.5h.176c.7-.528,2.817-1.408,2.641-3.521-.176-2.993-2.641-13.028-12.676-13.38-6.866-.176-10.035,3.873-11.444,7.923A9.283,9.283,0,0,0,53.783,27.877Z" transform="translate(-43.255 6.806)" fill="url(#linear-gradient-2)"/>
    <path id="Path_13026" data-name="Path 13026" d="M12,34.69l.528.528c1.232,1.056,1.408,1.056,1.937,1.232l.176-2.465v-.7h0v-.176c.88-7.042,5.282-10.387,10.211-10.739a12.267,12.267,0,0,1,7.1,1.842c.352-1.056,1.878-1.265,2.582-1.441A15.723,15.723,0,0,0,25.381,19.9c-10.74-.176-12.852,9.155-13.381,13.2v.176h0v.176C12,34.162,12,34.69,12,34.69Z" transform="translate(68.424 7.036)" fill="url(#linear-gradient-2)"/>
    <path id="Path_13027" data-name="Path 13027" d="M65.18,25.2a15.806,15.806,0,0,0-.88,3.345v-.176A16.666,16.666,0,0,1,65.18,25.2Z" transform="translate(-55.356 11.068)" fill="url(#linear-gradient-4)"/>
    <path id="Path_13028" data-name="Path 13028" d="M69.362,26.3c.176.88,0,1.761-.352,1.761s-.7-.7-.88-1.585,0-1.761.352-1.761C68.834,24.536,69.186,25.24,69.362,26.3Z" transform="translate(-66.228 10.676)" fill="#1e3d84"/>
    <path id="Path_13029" data-name="Path 13029" d="M63.941,21.18,65,20.3l2.817.528c.176,4.049,2.465,5.458,4.4,6.162a9.283,9.283,0,0,0,2.289.352h0a10.382,10.382,0,0,1-.7,1.408h0a15.8,15.8,0,0,0-.88,3.345h0c-.352,1.761-.528,3.521-.528,3.521h-.176c-.528,0-3.7,0-3.7-.7-.176-.7-2.817-1.937-2.817-1.937h0C63.061,30.863,63.941,21.18,63.941,21.18Zm7.395,13.2Zm.352,1.232Zm0,0Zm0-.176Zm-.176-.176Zm0-.176Zm0-.176Zm-.176-.352Zm0-.528Zm0-.352Zm-.176-.352Z" transform="translate(-63.8 7.341)" fill="#1e3d84"/>
    <path id="Path_13030" data-name="Path 13030" d="M6.232,27.208a1.886,1.886,0,0,0,.176,1.585c.352,0,.7-.528.88-1.408A1.886,1.886,0,0,0,7.112,25.8C6.76,25.8,6.408,26.5,6.232,27.208Z" transform="translate(104.827 11.524)" fill="url(#linear-gradient-5)"/>
    <path id="Path_13031" data-name="Path 13031" d="M4.468,29.785,5,30.841s5.282.176,7.923-.7c1.408-.528,1.585-1.408,1.408-1.937-.176,1.056-1.761,1.585-4.578,1.761C6.581,29.961,5,29.785,4.468,29.785Z" transform="translate(100.78 13.349)" fill="#1e3d84"/>
    <path id="Path_13032" data-name="Path 13032" d="M5.649,21.728a1.859,1.859,0,0,1,1.056,0S8.994,21.9,9.7,21.9a.939.939,0,0,0,.88-.7h0c.352.176.7.528,1.056.7h0a7.777,7.777,0,0,0,1.408.528h.7c1.408.176,3.873.176,3.873.176l2.113,1.232c.176,4.049-.88,4.577-.88,4.577L18.5,32.644c0,.176.176.352.176.528.176.528,0,1.408-1.408,1.937-2.641,1.056-7.923.7-7.923.7l-.88-1.585S8.818,27.186,5.3,24.193a7.959,7.959,0,0,0-1.408-1.056,2.025,2.025,0,0,1,1.761-1.408" transform="translate(96.43 8.025)" fill="#1e3d84"/>
    <path id="Path_13033" data-name="Path 13033" d="M9.439,23.817a32.99,32.99,0,0,0,4.754.352l-1.937-1.408L4.862,21s-.176.88-.88.88S7.326,23.289,9.439,23.817Z" transform="translate(101.971 7.873)" fill="#1e3d84"/>
    <path id="Path_13034" data-name="Path 13034" d="M22.5,35.386h0c.176,0,1.761-3.521,1.937-8.275,0-1.232-.7-5.986-1.408-10.211h-.176c.7,4.049,1.408,8.979,1.408,10.211A24.375,24.375,0,0,1,22.5,35.386Z" transform="translate(58.98 4.755)" fill="#0f1f3f"/>
    <path id="Path_13035" data-name="Path 13035" d="M23.5,26.4h0l51.409,1.937h1.056v-.176H74.909Z" transform="translate(5.691 11.98)" fill="#0f1f3f"/>
    <path id="Path_13036" data-name="Path 13036" d="M41.837,41.807h.169a51.171,51.171,0,0,1-.891-6.766c-.677-8.45-.686-12.6-.686-12.6a.647.647,0,0,1,.176-.528c0-.176.176-.352.176-.528-.176-7.57-.7-14.085-.7-14.085H39.9s.528,6.69.7,14.085a.647.647,0,0,1-.176.528c0,.176-.176.352-.176.528C40.428,27.9,40.956,37.758,41.837,41.807Z" transform="translate(10.946 -2.546)" fill="#0f1f3f"/>
    <path id="Path_13037" data-name="Path 13037" d="M36.863,19.524s-.7-1.937.176-2.113,4.578.528,4.4,2.113C41.441,20.4,37.215,20.756,36.863,19.524Z" transform="translate(17.152 5.124)" fill="#0f1f3f"/>
    <path id="Path_13038" data-name="Path 13038" d="M36.9,17.908s5.81.176,5.81.88c0,0,.352.7-5.986.176a.517.517,0,0,1-.528-.528C36.374,17.732,36.9,17.908,36.9,17.908Z" transform="translate(16.585 5.507)" fill="#1e3d84"/>
    <path id="Path_13039" data-name="Path 13039" d="M17.6,24.814l-.176-.176-.88-1.761S13.551,19.708,5.8,18.3l-.7.528L9.854,22.7A10.977,10.977,0,0,0,17.6,24.814Z" transform="translate(96.451 5.82)" fill="url(#linear-gradient-6)"/>
    <path id="Path_13040" data-name="Path 13040" d="M67.414,26.808l3.873.176c.176-2.641.528-10.211.176-11.444A5.517,5.517,0,0,0,69.7,12.9a1.058,1.058,0,0,1-.176.7h0v.176h0a23.86,23.86,0,0,0-.352,3.521h0v.7c0,.7-.176,1.408-.176,2.113h0v.7l-.176,1.937-.176,2.993Z" transform="translate(-67.274 1.713)" fill="#1e3d84"/>
    <path id="Path_13041" data-name="Path 13041" d="M67.8,17.8h1.937V16.041A4.1,4.1,0,0,0,68.5,13.752l-.176-.176h0l-.176-.176h0v.352a23.861,23.861,0,0,0-.352,3.521h0V17.8Z" transform="translate(-66.075 2.093)" fill="#3bc4f7"/>
    <path id="Path_13042" data-name="Path 13042" d="M68.252,24.251h.7c1.232,0,1.232-.352,1.232-.352V22.666a7.9,7.9,0,0,1,.176-1.937V15.8H68.252c0,.88-.176,1.056-.176,1.937h0v.176c0,.7-.176,1.408-.176,2.113v.528h0V23.37h0C68.076,23.9,68.076,24.251,68.252,24.251Z" transform="translate(-66.879 3.918)" fill="#e30613"/>
    <path id="Path_13043" data-name="Path 13043" d="M67.9,21.241h2.113v-.528a7.9,7.9,0,0,1,.176-1.937V18.6H68.076v1.937A1.331,1.331,0,0,0,67.9,21.241Z" transform="translate(-66.703 6.048)" fill="url(#linear-gradient-7)"/>
    <path id="Path_13045" data-name="Path 13045" d="M49.954,24.225c2.113.176,3.521.352,3.873.352,1.761,0,1.761-1.056,1.761-1.056C48.017,15.951,38.51,10.493,33.581,9.261,29.883,8.38,20.2,7.5,20.2,7.5c0,.7,1.232,13.908,1.232,13.908s19.719,1.937,28.522,2.817Z" transform="translate(31.878 -2.394)" fill="#0f1f3f"/>
    <path id="Path_13046" data-name="Path 13046" d="M52.465,23.921c1.056,0,1.232-.352,1.408-.7C46.655,16,37.324,10.541,32.395,9.485,29.049,8.6,21.831,8.076,20.423,7.9c-.176,1.232.7,7.57,1.761,13.2,2.641.176,28.17,2.817,30.282,2.817Z" transform="translate(33.24 -2.09)" fill="#1e3d84"/>
    <path id="Path_13047" data-name="Path 13047" d="M20.6,8c0,1.056.352,4.225,1.585,12.676h.352c2.113.176,7.923.88,13.909,1.408.528,0,.88.176,1.408.176s1.056.176,1.585.176q2.9.264,5.282.528c4.049.352,7.042.7,7.747.7h0c.7,0,.88-.176,1.056-.352a68.893,68.893,0,0,0-8.979-7.394A41.025,41.025,0,0,0,32.4,9.761,79.927,79.927,0,0,0,20.6,8Z" transform="translate(33.239 -2.014)" fill="#3bc4f7"/>
    <path id="Path_13048" data-name="Path 13048" d="M20.576,11.7s4.225,2.817,7.218,5.282c2.289,2.113,3.345,3.169,3.345,3.169s0,.88-1.937.7c-.88,0-3.345-.176-3.345-.176L20.4,20.151Zm5.458,5.282c.176,1.232.528,3.169.528,3.169s1.937.176,2.817.176.88-.352.88-.352c.176-.176-2.465-2.465-3.521-3.345C25.858,15.925,26.034,16.982,26.034,16.982Z" transform="translate(55.975 0.8)" fill="#0f1f3f"/>
    <path id="Path_13049" data-name="Path 13049" d="M24.828,16.256l1.408-.7h0l-.352-.352-1.585.7Z" transform="translate(54.011 3.462)" fill="#1e3d84"/>
    <path id="Path_13050" data-name="Path 13050" d="M24.447,15.752l1.585-.352.352,1.056s.176.528-1.056.528-1.232-.352-1.232-.352Z" transform="translate(54.216 3.614)" fill="#1e3d84"/>
    <path id="Path_13051" data-name="Path 13051" d="M24.3,18.082s.176.352.352.352h.176c.7.352,2.817.528,3.521-.88l.88-.352a10.684,10.684,0,0,0-2.641-4.049c-.176-.176-.352-.176-.528-.352h-.528Z" transform="translate(51.018 1.637)" fill="#1e3d84"/>
  </g>
</svg>
