<svg xmlns="http://www.w3.org/2000/svg" xmlns:xlink="http://www.w3.org/1999/xlink" width="288" height="76" viewBox="0 0 288 76">
  <defs>
    <linearGradient id="linear-gradient" x1="1.129" y1="0.227" x2="-0.107" y2="0.763" gradientUnits="objectBoundingBox">
      <stop offset="0" stop-color="#386aeb"/>
      <stop offset="0.237" stop-color="#3a6deb"/>
      <stop offset="0.467" stop-color="#4079eb"/>
      <stop offset="0.695" stop-color="#4b8deb"/>
      <stop offset="0.92" stop-color="#5ba8ec"/>
      <stop offset="1" stop-color="#62b4ed"/>
    </linearGradient>
    <linearGradient id="linear-gradient-2" y1="0.5" x2="1" y2="0.5" gradientUnits="objectBoundingBox">
      <stop offset="0" stop-color="#e967cd"/>
      <stop offset="0.33" stop-color="#ef83ab"/>
      <stop offset="1" stop-color="#fec55e"/>
    </linearGradient>
    <linearGradient id="linear-gradient-3" x1="0.149" y1="0.777" x2="0.944" y2="0.149" xlink:href="#linear-gradient"/>
  </defs>
  <g id="truck" transform="translate(0)">
    <g id="Group_1800" data-name="Group 1800" transform="translate(0 0)">
      <path id="Path_5517" data-name="Path 5517" d="M128.639,346.756c3.167,5.751,6.452,13.8,6.452,13.8s15.054,3.616,23.035,6.827a10.284,10.284,0,0,0-.216,2.095c0,3.852,2.08,7.01,4.73,7.34.011,1.472-.016,2.563-.016,2.563H148.1a11.656,11.656,0,0,0-14.5,0H80.811V346.756Z" transform="translate(122.695 -323.317)" fill="url(#linear-gradient)"/>
      <path id="Path_5518" data-name="Path 5518" d="M80.816,391.708a10.284,10.284,0,0,1,.216-2.095,23.332,23.332,0,0,1,3.535,1.7c.795.5.96,4.853.979,7.738C82.9,398.718,80.816,395.56,80.816,391.708Z" transform="translate(199.789 -345.544)" fill="url(#linear-gradient-2)"/>
      <path id="Path_5519" data-name="Path 5519" d="M140.886,414.539h69.062a11.55,11.55,0,0,0-4.4,9.067,25.358,25.358,0,0,0,.188,2.976H144.05c.1-.659.159-2.29.159-2.976A14,14,0,0,0,140.886,414.539Z" transform="translate(46.348 -358.472)" fill="#1e3d84"/>
      <path id="Path_5520" data-name="Path 5520" d="M275.874,414.539h42.355a13.825,13.825,0,0,1,3.164,11.08h-45.52Z" transform="translate(-130.512 -358.472)" fill="#1e3d84"/>
      <path id="Path_5521" data-name="Path 5521" d="M162.13,379.384H137.8V346.756h18.439l5.887,13.8Z" transform="translate(95.656 -323.317)" fill="url(#linear-gradient-3)"/>
      <rect id="Rectangle_525" data-name="Rectangle 525" width="194.684" height="51.392" fill="url(#linear-gradient)"/>
      <path id="Path_5522" data-name="Path 5522" d="M268.336,404.826H463.02v5.515H423.79v7.578H399.937l-4.834-7.578h-54l-4.834,7.578H276.31l-4.834-7.578h-3.14Z" transform="translate(-268.336 -353.434)" fill="#1e3d84"/>
      <path id="Path_5523" data-name="Path 5523" d="M75.3,414.539H92.5V426.1H79.513a17.737,17.737,0,0,0,.187-2.494A11.553,11.553,0,0,0,75.3,414.539Z" transform="translate(195.495 -358.472)" fill="#1e3d84"/>
      <path id="Path_5524" data-name="Path 5524" d="M202.579,328.157H158.121V310.924S194.661,309.432,202.579,328.157Z" transform="translate(45.385 -304.718)" fill="url(#linear-gradient)"/>
      <path id="Path_5525" data-name="Path 5525" d="M146.038,353v10.6H163.9L159.372,353Z" transform="translate(89.907 -326.555)" fill="#3bc4f7"/>
      <rect id="Rectangle_526" data-name="Rectangle 526" width="8.054" height="10.601" transform="translate(211.235 26.445)" fill="#3bc4f7"/>
      <rect id="Rectangle_527" data-name="Rectangle 527" width="8.054" height="10.601" transform="translate(221.825 26.445)" fill="#3bc4f7"/>
      <rect id="Rectangle_528" data-name="Rectangle 528" width="4.252" height="32.628" transform="translate(203.506 23.439)" fill="url(#linear-gradient)"/>
      <path id="Path_5526" data-name="Path 5526" d="M176.934,381.345a.7.7,0,0,1-.7.7h-4.263a.7.7,0,0,1-.7-.7h0a.7.7,0,0,1,.7-.7h4.263a.7.7,0,0,1,.7.7Z" transform="translate(64.673 -340.894)" fill="#0f1f3f"/>
      <path id="Path_5527" data-name="Path 5527" d="M235.2,338.362a.847.847,0,0,0,.848.844h2.695a.847.847,0,0,0,.848-.844h0a.847.847,0,0,0-.848-.845h-2.695a.847.847,0,0,0-.848.845Z" transform="translate(-28.885 -318.525)" fill="#3bc4f7"/>
      <path id="Path_5528" data-name="Path 5528" d="M235.2,331.235a.846.846,0,0,0,.848.844h2.695a.846.846,0,0,0,.848-.844h0a.847.847,0,0,0-.848-.845h-2.695a.847.847,0,0,0-.848.845Z" transform="translate(-28.885 -314.829)" fill="#3bc4f7"/>
      <rect id="Rectangle_529" data-name="Rectangle 529" width="5.027" height="25.595" transform="translate(198.479 30.473)" fill="#0f1f3f"/>
      <rect id="Rectangle_530" data-name="Rectangle 530" width="194.684" height="2.643" fill="#fff" opacity="0.2"/>
    </g>
    <path id="Path_5532" data-name="Path 5532" d="M189.581,328.157h13c-7.918-18.725-44.458-17.234-44.458-17.234v4.315C164.76,315.239,185.247,314.583,189.581,328.157Z" transform="translate(45.385 -304.718)" fill="url(#linear-gradient-3)"/>
    <g id="Group_1801" data-name="Group 1801" transform="translate(251.77 26.065)">
      <path id="Path_5533" data-name="Path 5533" d="M142.794,352.211h2.728a.876.876,0,0,1,.875.871v10.36a.876.876,0,0,1-.875.871h-2.728" transform="translate(-142.794 -352.211)" fill="#0f1f3f"/>
    </g>
    <g id="wheels" transform="translate(7.605 50.085)">
      <g id="_4" data-name="4" transform="translate(241.557)">
        <g id="Group_1803" data-name="Group 1803">
          <g id="Group_1802" data-name="Group 1802">
            <path id="Path_5535" data-name="Path 5535" d="M97.351,416.655a14,14,0,0,1,27.666,0" transform="translate(-97.351 -404.803)" fill="#1e3d84"/>
          </g>
        </g>
        <path id="Union_53" data-name="Union 53" d="M23.342,15.34H.262l-.069-.418A13.366,13.366,0,0,1,0,12.714a12.945,12.945,0,0,1,4.53-9.94,11.451,11.451,0,0,1,14.945,0A12.946,12.946,0,0,1,24,12.714a13.4,13.4,0,0,1-.191,2.207l-.07.418Z" transform="translate(1.917 1.257)" fill="#0f1f3f" stroke="rgba(0,0,0,0)" stroke-width="1"/>
        <path id="Path_5538" data-name="Path 5538" d="M103.5,422.664a10.755,10.755,0,1,1,10.741,11.294A11.028,11.028,0,0,1,103.5,422.664Z" transform="translate(-100.285 -408.043)" fill="#1e3d84"/>
        <path id="Path_5539" data-name="Path 5539" d="M118.2,433.857a7.43,7.43,0,1,0-7.058-7.422A7.256,7.256,0,0,0,118.2,433.857Z" transform="translate(-104.244 -411.814)" fill="#0f1f3f"/>
      </g>
      <g id="_3" data-name="3" transform="translate(156.917)">
        <g id="Group_1803-2" data-name="Group 1803">
          <g id="Group_1802-2" data-name="Group 1802">
            <path id="Path_5535-2" data-name="Path 5535" d="M97.351,416.655a14,14,0,0,1,27.666,0" transform="translate(-97.351 -404.803)" fill="#1e3d84"/>
          </g>
        </g>
        <path id="Union_53-2" data-name="Union 53" d="M23.342,15.34H.262l-.069-.418A13.366,13.366,0,0,1,0,12.714a12.945,12.945,0,0,1,4.53-9.94,11.451,11.451,0,0,1,14.945,0A12.946,12.946,0,0,1,24,12.714a13.4,13.4,0,0,1-.191,2.207l-.07.418Z" transform="translate(1.917 1.257)" fill="#0f1f3f" stroke="rgba(0,0,0,0)" stroke-width="1"/>
        <path id="Path_5538-2" data-name="Path 5538" d="M103.5,422.664a10.755,10.755,0,1,1,10.741,11.294A11.028,11.028,0,0,1,103.5,422.664Z" transform="translate(-100.285 -408.043)" fill="#1e3d84"/>
        <path id="Path_5539-2" data-name="Path 5539" d="M118.2,433.857a7.43,7.43,0,1,0-7.058-7.422A7.256,7.256,0,0,0,118.2,433.857Z" transform="translate(-104.244 -411.814)" fill="#0f1f3f"/>
      </g>
      <g id="_2" data-name="2" transform="translate(125.534)">
        <g id="Group_1803-3" data-name="Group 1803">
          <g id="Group_1802-3" data-name="Group 1802">
            <path id="Path_5535-3" data-name="Path 5535" d="M97.351,416.655a14,14,0,0,1,27.666,0" transform="translate(-97.351 -404.803)" fill="#1e3d84"/>
          </g>
        </g>
        <path id="Union_53-3" data-name="Union 53" d="M23.342,15.34H.262l-.069-.418A13.366,13.366,0,0,1,0,12.714a12.945,12.945,0,0,1,4.53-9.94,11.451,11.451,0,0,1,14.945,0A12.946,12.946,0,0,1,24,12.714a13.4,13.4,0,0,1-.191,2.207l-.07.418Z" transform="translate(1.917 1.257)" fill="#0f1f3f" stroke="rgba(0,0,0,0)" stroke-width="1"/>
        <path id="Path_5538-3" data-name="Path 5538" d="M103.5,422.664a10.755,10.755,0,1,1,10.741,11.294A11.028,11.028,0,0,1,103.5,422.664Z" transform="translate(-100.285 -408.043)" fill="#1e3d84"/>
        <path id="Path_5539-3" data-name="Path 5539" d="M118.2,433.857a7.43,7.43,0,1,0-7.058-7.422A7.256,7.256,0,0,0,118.2,433.857Z" transform="translate(-104.244 -411.814)" fill="#0f1f3f"/>
      </g>
      <g id="_1" data-name="1">
        <g id="Group_1803-4" data-name="Group 1803">
          <g id="Group_1802-4" data-name="Group 1802">
            <path id="Path_5535-4" data-name="Path 5535" d="M97.351,416.655a14,14,0,0,1,27.666,0" transform="translate(-97.351 -404.803)" fill="#1e3d84"/>
          </g>
        </g>
        <path id="Union_53-4" data-name="Union 53" d="M23.342,15.34H.262l-.069-.418A13.366,13.366,0,0,1,0,12.714a12.945,12.945,0,0,1,4.53-9.94,11.451,11.451,0,0,1,14.945,0A12.946,12.946,0,0,1,24,12.714a13.4,13.4,0,0,1-.191,2.207l-.07.418Z" transform="translate(1.917 1.257)" fill="#0f1f3f" stroke="rgba(0,0,0,0)" stroke-width="1"/>
        <path id="Path_5538-4" data-name="Path 5538" d="M103.5,422.664a10.755,10.755,0,1,1,10.741,11.294A11.028,11.028,0,0,1,103.5,422.664Z" transform="translate(-100.285 -408.043)" fill="#1e3d84"/>
        <path id="Path_5539-4" data-name="Path 5539" d="M118.2,433.857a7.43,7.43,0,1,0-7.058-7.422A7.256,7.256,0,0,0,118.2,433.857Z" transform="translate(-104.244 -411.814)" fill="#0f1f3f"/>
      </g>
    </g>
    <rect id="Rectangle_531" data-name="Rectangle 531" width="194.684" height="2.032" transform="translate(0 49.361)" fill="#fff" opacity="0.2"/>
    <rect id="Rectangle_532" data-name="Rectangle 532" width="26.312" height="11.71" transform="translate(193.936 58.604)" fill="#0f1f3f"/>
    <rect id="Rectangle_533" data-name="Rectangle 533" width="2.935" height="12.943" transform="translate(212.981 57.988)" fill="#1e3d84"/>
    <rect id="Rectangle_534" data-name="Rectangle 534" width="2.934" height="12.943" transform="translate(197.343 57.988)" fill="#1e3d84"/>
  </g>
</svg>
