<svg id="van" xmlns="http://www.w3.org/2000/svg" xmlns:xlink="http://www.w3.org/1999/xlink" width="148" height="76" viewBox="0 0 148 76">
  <defs>
    <linearGradient id="linear-gradient" x1="1.129" y1="0.227" x2="-0.107" y2="0.763" gradientUnits="objectBoundingBox">
      <stop offset="0" stop-color="#386aeb"/>
      <stop offset="0.237" stop-color="#3a6deb"/>
      <stop offset="0.467" stop-color="#4079eb"/>
      <stop offset="0.695" stop-color="#4b8deb"/>
      <stop offset="0.92" stop-color="#5ba8ec"/>
      <stop offset="1" stop-color="#62b4ed"/>
    </linearGradient>
    <linearGradient id="linear-gradient-2" x1="0.149" y1="0.777" x2="0.944" y2="0.149" xlink:href="#linear-gradient"/>
    <linearGradient id="linear-gradient-5" x1="1.58" y1="0.623" x2="-0.573" y2="0.58" xlink:href="#linear-gradient"/>
    <linearGradient id="linear-gradient-11" y1="0.5" x2="1" y2="0.5" gradientUnits="objectBoundingBox">
      <stop offset="0" stop-color="#e967cd"/>
      <stop offset="0.33" stop-color="#ef83ab"/>
      <stop offset="1" stop-color="#fec55e"/>
    </linearGradient>
  </defs>
  <g id="Group_1793" data-name="Group 1793" transform="translate(0 0)">
    <g id="Group_1781" data-name="Group 1781" transform="translate(15.135 50.628)">
      <g id="Group_1779" data-name="Group 1779">
        <path id="Path_5197" data-name="Path 5197" d="M252.771,721.844A14.967,14.967,0,0,1,267.733,736.8H237.809A14.967,14.967,0,0,1,252.771,721.844Z" transform="translate(-150.844 -721.844)" fill="#10132d"/>
        <path id="Path_5198" data-name="Path 5198" d="M1095.4,721.844a14.967,14.967,0,0,1,14.962,14.963l-29.921-.225A14.966,14.966,0,0,1,1095.4,721.844Z" transform="translate(-1080.443 -721.844)" fill="#10132d"/>
      </g>
      <g id="Group_1780" data-name="Group 1780" transform="translate(1.702)">
        <path id="Path_5199" data-name="Path 5199" d="M254.327,729.87a14.961,14.961,0,0,1,26.514,0Z" transform="translate(-167.359 -721.844)" fill="#10132d"/>
        <path id="Path_5200" data-name="Path 5200" d="M1096.962,729.87a14.961,14.961,0,0,1,26.514,0Z" transform="translate(-1096.962 -721.844)" fill="#10132d"/>
      </g>
    </g>
    <g id="Group_1784" data-name="Group 1784" transform="translate(0.521 0)">
      <path id="Path_5204" data-name="Path 5204" d="M89.975,238.926l-.068,45.531h16.761a18.068,18.068,0,0,1,25.6,0H193.65a18.064,18.064,0,0,1,25.6,0h17.425a2.747,2.747,0,0,1-.238-.788c-.524-2.7-.149-4.558-2.025-8.594-2.527-5.436-20.765-11.985-20.765-11.985a242.217,242.217,0,0,0-27.551-25.948c-5.441-4.281-12.72-4.458-17.473-4.852-18.06-1.5-72.491,0-72.491,0C92.469,232.29,89.975,235.26,89.975,238.926ZM176.642,261.1v-13a1.946,1.946,0,0,1,1.968-1.947c5.371.06,15.783.249,16.085.509,3.778,2.671,11.6,11.113,14.922,14.763a1.023,1.023,0,0,1-.758,1.71H178.68A2.038,2.038,0,0,1,176.642,261.1ZM223.3,273.311a.68.68,0,0,1,.734-.895,25.219,25.219,0,0,1,6.134,1.63c3.2,1.262,4.391,3.005,4.585,3.494s.616,4.235.926,5.567c0,0,0,.008,0,.013a.4.4,0,0,1-.454.47c-.475-.071-1.564-.226-3.175-.4a7.112,7.112,0,0,1-3.211-.842,8.074,8.074,0,0,1-3.041-3.253A62.984,62.984,0,0,1,223.3,273.311Z" transform="translate(-89.907 -231.623)" fill="url(#linear-gradient)"/>
      <path id="Path_5205" data-name="Path 5205" d="M366.239,371.379c3.8,2.686,11.719,11.235,14.948,14.786a1.182,1.182,0,0,1-.875,1.976h-30.18a2.2,2.2,0,0,1-2.2-2.2v-13a2.1,2.1,0,0,1,2.128-2.106C352.7,370.871,365.841,371.037,366.239,371.379Z" transform="translate(-261.36 -356.464)" fill="#3bc4f7"/>
      <path id="Path_5206" data-name="Path 5206" d="M552.647,239.409v-.483c0-3.666,2.493-6.636,6.155-6.636,0,0,54.431-1.5,72.491,0,4.753.394,12.032.57,17.473,4.852q1.426,1.122,2.82,2.268Z" transform="translate(-552.579 -231.623)" fill="url(#linear-gradient-2)"/>
      <path id="Path_5207" data-name="Path 5207" d="M215.079,541.508c4.35,1.672,17.238,6.942,19.332,11.448,1.876,4.036,1.5,5.894,2.025,8.594a2.746,2.746,0,0,0,.238.788H219.249a18.064,18.064,0,0,0-25.6,0H132.271a18.068,18.068,0,0,0-25.6,0H89.907l.031-20.831Zm8.218,9.684a62.962,62.962,0,0,0,2.5,5.783,8.074,8.074,0,0,0,3.041,3.253,7.113,7.113,0,0,0,3.211.842c1.61.176,2.7.331,3.175.4a.4.4,0,0,0,.454-.47s0-.008,0-.013c-.31-1.332-.732-5.079-.926-5.567s-1.382-2.233-4.585-3.494a25.218,25.218,0,0,0-6.134-1.631A.68.68,0,0,0,223.3,551.192Z" transform="translate(-89.907 -509.505)" fill="url(#linear-gradient-2)"/>
      <path id="Path_5208" data-name="Path 5208" d="M224.9,672.659c.275.608.575,1.256.891,1.923a8.073,8.073,0,0,0,3.041,3.253,7.113,7.113,0,0,0,3.211.842c1.61.176,2.7.331,3.175.4a.4.4,0,0,0,.454-.47s0-.008,0-.013c-.31-1.332-.732-5.079-.926-5.567a2.206,2.206,0,0,0-.2-.37h.716c.914,2.681.751,4.314,1.175,6.5a2.746,2.746,0,0,0,.238.788H219.249a18.064,18.064,0,0,0-25.6,0H132.271a18.068,18.068,0,0,0-25.6,0H89.907l.011-7.286Z" transform="translate(-89.907 -627.111)" fill="url(#linear-gradient)"/>
      <path id="Path_5209" data-name="Path 5209" d="M733.719,249.771a6.532,6.532,0,0,1,3.522-6.054,29.267,29.267,0,0,0-.476,5.621c.765,31.389,58.3,35.738,77.212,45.964-1.381-.338-75.381,0-75.381,0h-4.945Z" transform="translate(-733.651 -242.468)" fill="url(#linear-gradient-5)"/>
      <g id="Group_1783" data-name="Group 1783" transform="translate(11.478 47.516)">
        <path id="Path_5210" data-name="Path 5210" d="M212.69,697.033a18.106,18.106,0,0,1,30.9,12.259l0,0c-1.553.246-2.778.439-3.092.488l-.078,0a14.929,14.929,0,0,0-29.857-.01l-.01.026h-3.167A18.067,18.067,0,0,1,212.69,697.033Z" transform="translate(-120.426 -691.716)" fill="url(#linear-gradient)"/>
        <path id="Path_5211" data-name="Path 5211" d="M1055.374,697.033a18.1,18.1,0,0,1,30.905,12.766H1083.1a14.929,14.929,0,0,0-29.856-.216l-.024.041c-.727-.154-1.869-.393-3.133-.645A18.066,18.066,0,0,1,1055.374,697.033Z" transform="translate(-1050.09 -691.716)" fill="url(#linear-gradient)"/>
      </g>
    </g>
    <g id="Group_1787" data-name="Group 1787" transform="translate(0 52.833)">
      <g id="Group_1785" data-name="Group 1785" transform="translate(0)">
        <path id="Path_5212" data-name="Path 5212" d="M100.435,743.2H83.01a18.055,18.055,0,0,1,5.3,12.259l0,0,8.9-1.4c2-.284,2.849-1.591,3.34-3.237.284-2.991.921-5.459.383-7.1C100.793,743.283,100.623,743.529,100.435,743.2Z" transform="translate(46.853 -743.202)" fill="#0f1f3f"/>
        <path id="Path_5213" data-name="Path 5213" d="M1350.056,743.2c-.811.722-.459,3.6-.362,5.318a5.86,5.86,0,0,0,5.492,5.541c1.347.122,4.05.628,6.348,1.087a18.069,18.069,0,0,1,5.284-11.946h-16.761Z" transform="translate(-1349.534 -743.202)" fill="#0f1f3f"/>
        <path id="Path_5214" data-name="Path 5214" d="M568.147,743.2H506.768a18.059,18.059,0,0,1,5.3,12.766h50.771A18.067,18.067,0,0,1,568.147,743.2Z" transform="translate(-463.883 -743.202)" fill="#0f1f3f"/>
      </g>
      <g id="Group_1786" data-name="Group 1786">
        <path id="Path_5215" data-name="Path 5215" d="M86.281,747.662a18.2,18.2,0,0,0-3.27-4.46h17.425c.187.328.357.081.5.521a9.543,9.543,0,0,1,.01,3.938Z" transform="translate(46.853 -743.202)" fill="#1e3d84"/>
        <path id="Path_5216" data-name="Path 5216" d="M1349.636,747.662c-.12-1.689-.268-3.848.42-4.46h16.761a18.232,18.232,0,0,0-3.267,4.46Z" transform="translate(-1349.534 -743.202)" fill="#1e3d84"/>
        <path id="Path_5217" data-name="Path 5217" d="M510.036,747.662a18.208,18.208,0,0,0-3.268-4.46h61.379a18.211,18.211,0,0,0-3.268,4.46Z" transform="translate(-463.882 -743.202)" fill="#1e3d84"/>
      </g>
    </g>
    <g id="Group_1788" data-name="Group 1788" transform="translate(18.074 51.475)">
      <g id="Koleso" transform="translate(86.733 0)">
        <ellipse id="Ellipse_75" data-name="Ellipse 75" cx="8.916" cy="8.911" rx="8.916" ry="8.911" transform="translate(4.498 22.199) rotate(-97.006)" fill="#10132d"/>
        <path id="Path_5352" data-name="Path 5352" d="M321.411,779.448a7.983,7.983,0,0,0-7.981-7.986h0a7.983,7.983,0,0,0-7.981,7.986h0a7.983,7.983,0,0,0,7.981,7.986h0a7.983,7.983,0,0,0,7.981-7.986Zm-2.356-5.628a7.936,7.936,0,0,1,2.33,5.628h0a7.937,7.937,0,0,1-2.33,5.628h0a7.926,7.926,0,0,1-5.624,2.331h0a7.926,7.926,0,0,1-5.624-2.331h0a7.936,7.936,0,0,1-2.33-5.628h0a7.935,7.935,0,0,1,2.33-5.628h0a7.926,7.926,0,0,1,5.624-2.331h0a7.926,7.926,0,0,1,5.624,2.331Z" transform="translate(-301.176 -767.185)" fill="#1d1d1b"/>
        <path id="Shina" d="M282.21,735.967a12.262,12.262,0,1,1-12.255,12.263A12.259,12.259,0,0,1,282.21,735.967Zm0,20.653a8.39,8.39,0,1,0-8.385-8.39A8.388,8.388,0,0,0,282.21,756.62Z" transform="translate(-269.955 -735.967)" fill="#1e3d84"/>
      </g>
      <g id="Koleso-2" data-name="Koleso" transform="translate(0 0)">
        <ellipse id="Ellipse_75-2" data-name="Ellipse 75" cx="8.916" cy="8.911" rx="8.916" ry="8.911" transform="translate(4.498 22.199) rotate(-97.006)" fill="#10132d"/>
        <path id="Path_5352-2" data-name="Path 5352" d="M321.411,779.448a7.983,7.983,0,0,0-7.981-7.986h0a7.983,7.983,0,0,0-7.981,7.986h0a7.983,7.983,0,0,0,7.981,7.986h0a7.983,7.983,0,0,0,7.981-7.986Zm-2.356-5.628a7.936,7.936,0,0,1,2.33,5.628h0a7.937,7.937,0,0,1-2.33,5.628h0a7.926,7.926,0,0,1-5.624,2.331h0a7.926,7.926,0,0,1-5.624-2.331h0a7.936,7.936,0,0,1-2.33-5.628h0a7.935,7.935,0,0,1,2.33-5.628h0a7.926,7.926,0,0,1,5.624-2.331h0a7.926,7.926,0,0,1,5.624,2.331Z" transform="translate(-301.176 -767.185)" fill="#1d1d1b"/>
        <path id="Shina-2" data-name="Shina" d="M282.21,735.967a12.262,12.262,0,1,1-12.255,12.263A12.259,12.259,0,0,1,282.21,735.967Zm0,20.653a8.39,8.39,0,1,0-8.385-8.39A8.388,8.388,0,0,0,282.21,756.62Z" transform="translate(-269.955 -735.967)" fill="#1e3d84"/>
      </g>
    </g>
    <g id="Group_1789" data-name="Group 1789" transform="translate(118.886 28.919)">
      <path id="Path_5487" data-name="Path 5487" d="M305.125,517.462H308a.421.421,0,0,1,.42.42v3.971l.992.141c.123-.426.4-.724.732-.724.441,0,.8.54.8,1.206s-.357,1.206-.8,1.206c-.386,0-.707-.413-.782-.963l-.942-.112v.024a.421.421,0,0,1-.42.42h-2.873a.421.421,0,0,1-.42-.42v-4.749A.421.421,0,0,1,305.125,517.462Z" transform="translate(-304.705 -516.861)" fill="url(#linear-gradient)"/>
      <path id="Path_5488" data-name="Path 5488" d="M305.125,511.639H308a.421.421,0,0,1,.42.42v3.971l.992.576c.123-.426.4-.724.732-.724.441,0,.8.54.8,1.206s-.357,1.206-.8,1.206c-.386,0-.707-.413-.782-.963l-.942-.547v.024a.421.421,0,0,1-.42.42h-2.873a.421.421,0,0,1-.42-.42v-4.749A.421.421,0,0,1,305.125,511.639Z" transform="translate(-304.705 -511.639)" fill="url(#linear-gradient)"/>
      <path id="Path_5489" data-name="Path 5489" d="M304.789,513.288c.093,1.648,1.6,3.017,3.628,3.42v.8l.992.576c.123-.426.4-.725.732-.725.441,0,.8.54.8,1.206s-.357,1.206-.8,1.206c-.386,0-.707-.413-.782-.963l-.942-.547v.024a.421.421,0,0,1-.42.42h-2.873a.421.421,0,0,1-.42-.42v-4.749A.416.416,0,0,1,304.789,513.288Z" transform="translate(-304.705 -513.118)" fill="url(#linear-gradient-2)"/>
    </g>
    <g id="Group_1790" data-name="Group 1790" transform="translate(133.88 40.789)">
      <path id="Path_5490" data-name="Path 5490" d="M100.244,626.583a.68.68,0,0,0-.734.895,62.965,62.965,0,0,0,2.5,5.783,8.074,8.074,0,0,0,3.041,3.253,7.11,7.11,0,0,0,3.211.842c1.61.176,2.7.331,3.175.4a.4.4,0,0,0,.454-.47s0-.008,0-.013c-.31-1.332-.732-5.079-.926-5.567s-1.382-2.233-4.585-3.495A25.225,25.225,0,0,0,100.244,626.583Z" transform="translate(-99.478 -626.58)" fill="url(#linear-gradient-11)"/>
      <path id="Path_5492" data-name="Path 5492" d="M100.465,628.286a30.7,30.7,0,0,0,6.186,6.8,33.984,33.984,0,0,0,5.937,4.046.406.406,0,0,1-.384.156c-.475-.071-1.564-.226-3.175-.4a7.113,7.113,0,0,1-3.211-.842,8.075,8.075,0,0,1-3.041-3.253,62.943,62.943,0,0,1-2.5-5.783A.677.677,0,0,1,100.465,628.286Z" transform="translate(-100.247 -628.11)" fill="#fff" opacity="0.15"/>
    </g>
    <g id="Group_1791" data-name="Group 1791" transform="translate(89.424 36.457)">
      <ellipse id="Ellipse_77" data-name="Ellipse 77" cx="2.319" cy="1.071" rx="2.319" ry="1.071" transform="translate(0.011)" fill="#0f1f3f"/>
      <path id="Path_5493" data-name="Path 5493" d="M605.45,591.717H609.2a.478.478,0,0,0,.476-.477h0a.478.478,0,0,0-.476-.477H605.45a.478.478,0,0,0-.477.477h0A.478.478,0,0,0,605.45,591.717Z" transform="translate(-604.974 -590.131)" fill="#1e3d84"/>
    </g>
    <g id="Group_1792" data-name="Group 1792" transform="translate(0.584 35.597)">
      <path id="Path_5494" data-name="Path 5494" d="M1464.018,698.127v3.68a.975.975,0,0,0,.975.975h3.909v-4.655Z" transform="translate(-1464.018 -685.546)" fill="url(#linear-gradient-11)"/>
      <rect id="Rectangle_400" data-name="Rectangle 400" width="4.884" height="7.257" transform="translate(0 5.324)" fill="#e30613"/>
      <path id="Path_5495" data-name="Path 5495" d="M1464.018,577.386v4.245h4.884v-5.324H1465.1A1.078,1.078,0,0,0,1464.018,577.386Z" transform="translate(-1464.018 -576.308)" fill="#e30613"/>
    </g>
  </g>
</svg>
